<svg xmlns="http://www.w3.org/2000/svg" viewBox="0 0 64 64" fill="none">
  <path d="M32 5L52 13V28C52 39.2 44.5 49.8 32 56C19.5 49.8 12 39.2 12 28V13L32 5Z" fill="#3A8D59" fill-opacity="0.24" stroke="#B8E3C8" stroke-width="2.5"/>

  <g fill="#B8E3C8">
    <circle cx="23" cy="25.5" r="3"/>
    <circle cx="29" cy="22" r="3"/>
    <circle cx="35" cy="22" r="3"/>
    <circle cx="41" cy="25.5" r="3"/>
    <path d="M32 43C36.6 43 40.4 39.5 40.4 35.1C40.4 31.2 37.2 28.1 33.2 27.7C32.8 27.7 32.4 27.7 32 27.8C31.6 27.7 31.2 27.7 30.8 27.7C26.8 28.1 23.6 31.2 23.6 35.1C23.6 39.5 27.4 43 32 43Z"/>
  </g>
</svg>
